<svg xmlns="http://www.w3.org/2000/svg" width="256" height="256" viewBox="0 0 100 100"><rect width="100" height="100" rx="50" fill="#4a4a4a"></rect><path fill="#ffffff" d="M17.40 73.58Q15.75 73.72 14.89 73.12Q14.03 72.53 14.03 71.34L14.03 71.34Q14.03 69.16 16.47 69.10L16.47 69.10L18.45 68.96Q21.82 68.77 23.47 66.88Q25.12 65.00 25.12 60.85L25.12 60.85L25.12 29.17Q25.12 27.91 25.91 27.15Q26.70 26.39 27.82 26.39L27.82 26.39Q29.08 26.39 29.80 27.15Q30.53 27.91 30.53 29.17L30.53 29.17L30.53 60.91Q30.53 66.98 27.76 70.05Q24.99 73.12 19.38 73.45L19.38 73.45L17.40 73.58ZM83.33 26.39Q84.58 26.39 85.28 27.15Q85.97 27.91 85.97 29.17L85.97 29.17L85.97 70.94Q85.97 72.13 85.31 72.86Q84.65 73.58 83.46 73.58L83.46 73.58Q82.27 73.58 81.68 72.86Q81.09 72.13 81.09 70.94L81.09 70.94L81.09 37.22L66.76 64.67Q65.84 66.59 64.06 66.59L64.06 66.59Q62.34 66.59 61.35 64.67L61.35 64.67L46.96 37.55L46.96 70.94Q46.96 72.13 46.34 72.86Q45.71 73.58 44.52 73.58L44.52 73.58Q43.33 73.58 42.67 72.86Q42.01 72.13 42.01 70.94L42.01 70.94L42.01 29.17Q42.01 27.91 42.74 27.15Q43.47 26.39 44.72 26.39L44.72 26.39Q46.37 26.39 47.36 28.31L47.36 28.31L64.12 60.45L80.69 28.31Q81.22 27.25 81.84 26.82Q82.47 26.39 83.33 26.39L83.33 26.39Z"></path></svg>