<svg width="145" height="43" viewBox="0 0 145 43" fill="none" xmlns="http://www.w3.org/2000/svg">
<path d="M3.98153 15.3636V35.6903C3.98153 37.0071 3.40625 37.6335 1.69318 37.6335C1.45028 37.6335 1.23295 37.6207 0.926136 37.5824V42.3253C1.38636 42.3509 1.74432 42.3636 2.19176 42.3636C7.08807 42.3636 10.233 40.6761 10.233 35.8182V15.3636H3.98153ZM7.10085 13.0753C8.87784 13.0753 10.3097 11.733 10.3097 10.0838C10.3097 8.43466 8.87784 7.10511 7.10085 7.10511C5.33665 7.10511 3.89205 8.43466 3.89205 10.0838C3.89205 11.733 5.33665 13.0753 7.10085 13.0753ZM23.391 35.3707C28.543 35.3707 31.9308 32.8778 32.6467 29.017L26.9066 28.8509C26.4208 30.1548 25.1424 30.858 23.506 30.858C21.1026 30.858 19.6197 29.2599 19.6197 26.8565V26.6903H32.7106V25.1307C32.7106 18.6619 28.7731 15.108 23.1992 15.108C17.2674 15.108 13.4577 19.1733 13.4577 25.2585C13.4577 31.5483 17.2163 35.3707 23.391 35.3707ZM19.6197 23.0597C19.7092 21.1037 21.256 19.6207 23.3271 19.6207C25.3853 19.6207 26.8683 21.0526 26.8938 23.0597H19.6197ZM42.1548 23.8011C42.1676 21.5639 43.4716 20.2344 45.4531 20.2344C47.4347 20.2344 48.6108 21.5384 48.598 23.7116V35H54.8494V22.4844C54.8622 18.0611 52.1648 15.108 48.0355 15.108C45.1335 15.108 42.9347 16.5781 42.0653 18.9688H41.848V15.3636H35.9034V35H42.1548V23.8011ZM64.9712 23.8011C64.984 21.5639 66.288 20.2344 68.2695 20.2344C70.2511 20.2344 71.4272 21.5384 71.4144 23.7116V35H77.6658V22.4844C77.6786 18.0611 74.9812 15.108 70.8519 15.108C67.9499 15.108 65.7511 16.5781 64.8817 18.9688H64.6644V15.3636H58.7198V35H64.9712V23.8011ZM81.5362 35H87.7876V15.3636H81.5362V35ZM84.6683 13.0753C86.4453 13.0753 87.8771 11.733 87.8771 10.0838C87.8771 8.43466 86.4453 7.10511 84.6683 7.10511C82.9041 7.10511 81.4595 8.43466 81.4595 10.0838C81.4595 11.733 82.9041 13.0753 84.6683 13.0753ZM102.927 15.3636H99.1815V14.2642C99.1815 13.1392 99.6417 12.4489 101.099 12.4489C101.687 12.4489 102.403 12.5767 102.863 12.7173L103.86 8.14062C103.119 7.93608 101.419 7.59091 99.6928 7.59091C95.6914 7.59091 92.9428 9.81534 92.9428 14.3665V15.3636H90.2965V19.9659H92.9428V35H99.1815V19.9659H102.927V15.3636ZM114.446 35.3707C119.598 35.3707 122.985 32.8778 123.701 29.017L117.961 28.8509C117.475 30.1548 116.197 30.858 114.561 30.858C112.157 30.858 110.674 29.2599 110.674 26.8565V26.6903H123.765V25.1307C123.765 18.6619 119.828 15.108 114.254 15.108C108.322 15.108 104.512 19.1733 104.512 25.2585C104.512 31.5483 108.271 35.3707 114.446 35.3707ZM110.674 23.0597C110.764 21.1037 112.311 19.6207 114.382 19.6207C116.44 19.6207 117.923 21.0526 117.949 23.0597H110.674ZM126.958 35H133.21V24.3381C133.21 21.9986 134.871 20.4261 137.109 20.4261C137.85 20.4261 138.962 20.554 139.563 20.7585V15.3253C139.039 15.1847 138.387 15.0952 137.812 15.0952C135.664 15.0952 133.951 16.348 133.235 18.9432H133.031V15.3636H126.958V35Z" fill="white"/>
<circle cx="114.125" cy="10.125" r="3.125" fill="#FF4757"/>
</svg>
